<svg xmlns="http://www.w3.org/2000/svg" width="182" height="186" viewBox="0 0 182 186.4" style="image-rendering:optimizeQuality;shape-rendering:geometricPrecision;text-rendering:geometricPrecision"><defs><style type="text/css">
    .fil0 {fill:black}
</style></defs><path class="fil0" d="M72.6 0.2l-0.6 0.2-0.8 0.4-1 0.6-1 1-0.6 1-0.6 1.6 1.2 18-39.4 0.4-19.2 19.8 61 4.6 2.6 28-2.4-1.6c-0.7-0.4-1.5-0.8-2.2-1.4-0.9-0.5-2-1.1-2.8-1.8l-1.8-1.2-1.6-1-1.6-1-2-1.2-1.4-0.8-1.6-1-4.2-2.4-1.8-1-3-1.4-2.8-1.4-1.6-0.8-2.2-1-2.4-1-2.8-1-3.2-1-4.4-1-2.8-0.4-5.4 0-1 0.2-2 0.4-1.6 0.4-1 0.4-1.4 0.6-0.6 0.4-1 0.6-1.4 1-2 2c-0.3 0.5-0.7 0.7-1 1.2l-0.6 0.8c-0.1 0.1-0.3 0.7-0.4 0.8l-1.2 2-0.8 1.6-0.6 1.4-0.8 2.6-0.6 1.6-0.4 1.8-0.4 1.8-0.4 2-0.4 2.4-0.4 3.4-0.2 3.4 0 10.4 0.2 3.4 0.4 3.8 0.4 2.6 0.2 1.6 0.4 2.2 0.6 3 0.4 1.6 0.6 2.4 0.4 1.4 0.4 1.4 0.2 0.6 0.4 1.2c0.3 0.6 0.4 1.2 0.6 1.8l0.4 1.2 0.4 1 0.2 0.6 0.4 1 0.6 1.6 0.4 0.8 0.6 1.4 0.4 0.8 0.4 0.8 0.6 1.2 0.4 0.8 0.6 1.2 0.6 1.2 1 1.8 0.4 0.6 0.6 1 0.4 0.6 1 1.6 0.8 1.2 0.8 1.2 1 1.4 1 1.4 0.8 1 1 1.2 0.6 0.8 1 1.2 3 3 1 0.8 1 0.6 1.2 0.6 0.8 0.4 1 0.4 2.8 0.6 5.6 0 3.2-0.6 1.2-0.4 3-1.4 1.4-0.8 1-0.6 2-1.2 1.6-1.2 1.4-1 1.6-1.2 2.6-2.2 1-0.8 2.4-2 2-1.8 2.2-2 2.2-1.8c0.7-0.7 1.9-2 2.2-2.2 0.1-0.1 0.9-0.8 1.4-1.2l1.2-1 0.2-0.2 0.2-0.4 0-0.6-0.2-0.2-5.8-0.2-2.2-0.4-1.8-0.6-1-0.6-1-0.8-1-1-0.8-1-1.2-2.2-1.2-3.4-0.8-2.6-0.6-3.2-0.6-3.4-0.6-2.6-0.6-3.4-0.6-3.2-0.8-4 0-2 0.8-0.8 2.6 0 2 0.4 2.4 0.6c1.4 0.5 2.7 0.9 4 1.6l2.2 1 1.4 0.6 0.8 0.4c0.8 0.6 2.1 0.9 2.8 1.6l2 1.2 2.2 1.6 2.4 2.4 0.8 1.6 1.4 13.6 23.4 0 1-10.4 0.6-2.6 1.2-2.2 2.4-2.4 0.8-0.6c0.7-0.3 1.4-0.9 2-1.4 0.8-0.5 1.7-1.2 2.6-1.6 1-0.5 2-1.1 3-1.6l1.8-0.8c0.8-0.3 1.6-0.7 2.4-1l1.8-0.6 1-0.4 2.4-0.6 2-0.4 2.6 0 0.8 0.8 0 2c0 0.3-1.4 7-1.6 8l-0.4 2.6-0.4 2-0.6 3.4-0.4 1.8-0.4 2-0.6 2.2-0.6 2-0.8 1.8-0.6 1.2-0.6 1-0.8 1-1 1-2 1.4-1.8 0.6-2.2 0.4-5.8 0.2-0.2 0.2 0 0.6 0.2 0.4c0.2 0.2 1.1 1 1.4 1.2l1 1 2 1.8 1 1 1.4 1.2 2.6 2.2 1.6 1.6 4.8 4 1.6 1.2c0 0 8.4 5.6 8.4 5.6 0 0 3 1.6 3.6 1.8l2 0.6 2.4 0.4 5.6 0 2.8-0.6c0.2-0.1 2.3-0.9 2.4-1l2.2-1.6 3.6-3.6c1.2-1.2 2-2.6 3.2-3.8l1.4-2.2 3.4-5c0 0 2.4-4.2 2.4-4.2l1.4-2.6 1-2 1.2-2.8 1-2.4 1.4-3.8 0.8-2.4 1-3.4 0.8-3.6 1.2-5.6 0.2-1.6 0.4-2.6 0.2-2.2 0.4-5 0-10.4-0.2-3.4-0.4-3.4-0.4-2.4-0.2-1.4-0.4-1.8-0.4-1.6-0.2-0.8-0.4-1.2-0.4-1.4c-0.2-0.5-0.8-1.9-1-2.4l-1-2.2-1-1.8-1.2-1.8-2.2-2.4c-0.2-0.2-3.7-2.7-3.8-2.8l-2-0.8-2-0.6-3-0.6-5.4 0-2.8 0.4-3.4 0.8-3 0.8-3 1-2.4 1-2.4 1-3 1.4-4 2-4.8 2.6-1.4 0.8-7 4.2-1.8 1.2-3.2 2-4 2.6-3.2 2.2c0 0 2.6-28.8 2.6-28.8l61.6-4.6-19.2-19.6-40-0.2 1.4-17.8-0.6-1.8-0.8-1.2-1.2-1.2-1.4-0.8-0.6-0.2-1.4-0.2-33.6 0-1.2 0.2z"/><path class="fil0" d="M51.2 175.6l-0.6 1 0 0.6 0.2 0.4 0.4 0.4 0.4 0.2 0.8 0.4 0.8 0.4 1.6 0.6 1 0.4 2.4 0.6 1.8 0.2 1.6 0 1-0.2 0.6-0.4 0.8-0.6 1.8-1.6c3.4-3.4 7.3-6.6 11-9.8l-0.8 14 0 2.4 0.2 1 0.2 0.4 0.2 0.2 0.8 0.2 27.2 0 0.8-0.2 0.2-0.2 0.2-0.4 0.2-1 0-2.4-0.8-14c0 0 12 10.6 12 10.6l0.8 0.8 0.8 0.6 0.6 0.4 1 0.2 1.6 0 1.8-0.2 1.6-0.4 1.8-0.6 1-0.4 0.6-0.2 0.8-0.4 0.8-0.4 0.4-0.2 0.4-0.4 0.2-0.4 0-0.6c0 0.3-29.4-43.8-29.4-43.8l-22 0c0 0-28.8 42.8-28.8 42.8z"/></svg>
